<svg xmlns="http://www.w3.org/2000/svg" width="412.949" height="372.531" viewBox="0 0 412.949 372.531">
  <g id="logo" transform="translate(-343.851 -632.457)">
    <path id="Caminho_15" data-name="Caminho 15" d="M213.272,919.319a51.613,51.613,0,0,1,0-72.992l36.5-36.5,36.5,36.5a51.613,51.613,0,1,1-72.992,72.992ZM97.654,846.858a71.069,71.069,0,0,1,0-100.506,71.809,71.809,0,0,1,101.553,0L249.46,796.6l-50.253,50.253a71.81,71.81,0,0,1-101.553,0Zm202.059,0L249.46,796.6l50.253-50.252a71.808,71.808,0,0,1,101.552,0A71.44,71.44,0,0,1,299.712,846.857Zm-92.573-106.67a61.255,61.255,0,0,1,0-86.626,60.623,60.623,0,0,1,85.733,0,61.254,61.254,0,0,1,0,86.626l-42.867,42.867Z" transform="translate(300.789 -3.348)" fill="#e86868"/>
    <g id="Grupo_28" data-name="Grupo 28" transform="translate(343.851 961.143)">
      <path id="Caminho_12" data-name="Caminho 12" d="M37.859-17.336a15.574,15.574,0,0,1-2.4,7.864,14.5,14.5,0,0,1-6.165,5.287,20.984,20.984,0,0,1-9.065,1.874q-8.406,0-13.239-5.477T2.156-23.252v-2.109A25.813,25.813,0,0,1,4.338-36.33a16.533,16.533,0,0,1,6.282-7.264,17.528,17.528,0,0,1,9.49-2.563q7.762,0,12.477,4.086t5.36,11.262H27.7q-.117-3.9-1.962-5.594T20.11-38.1a6.141,6.141,0,0,0-5.623,2.87q-1.787,2.87-1.874,9.167v3.017q0,6.824,1.713,9.753t5.9,2.929a7.894,7.894,0,0,0,5.418-1.669q1.874-1.669,1.992-5.3Zm38.576-6A25.148,25.148,0,0,1,74.121-12.3a17.1,17.1,0,0,1-6.575,7.4,18.309,18.309,0,0,1-9.709,2.592,18.568,18.568,0,0,1-9.665-2.5A17.072,17.072,0,0,1,41.6-11.976a24.424,24.424,0,0,1-2.475-10.69v-2.4a25.259,25.259,0,0,1,2.3-11.057,17.059,17.059,0,0,1,6.59-7.4,18.437,18.437,0,0,1,9.768-2.607,18.257,18.257,0,0,1,9.665,2.577,17.366,17.366,0,0,1,6.6,7.337A24.533,24.533,0,0,1,76.435-25.3ZM65.979-25.127q0-6.356-2.123-9.651a6.811,6.811,0,0,0-6.077-3.295q-7.732,0-8.172,11.6l-.029,3.134q0,6.268,2.08,9.636a6.8,6.8,0,0,0,6.18,3.368,6.719,6.719,0,0,0,6-3.31q2.109-3.31,2.138-9.519Zm26.86-20.414,9.519,29.67,9.49-29.67h13.531V-2.9h-10.31v-9.958l1-20.385L105.755-2.9h-6.8L88.621-33.269l1,20.414V-2.9H79.337V-45.541Zm46.952,28.176V-2.9h-10.28V-45.541h17.017a19.82,19.82,0,0,1,8.655,1.8,13.575,13.575,0,0,1,5.828,5.126,14,14,0,0,1,2.065,7.542,12.339,12.339,0,0,1-4.467,9.973q-4.467,3.734-12.257,3.734Zm0-7.937h6.736a6.353,6.353,0,0,0,4.554-1.494,5.55,5.55,0,0,0,1.567-4.218,6.86,6.86,0,0,0-1.611-4.774,5.7,5.7,0,0,0-4.393-1.816h-6.854ZM182-17.98h-5.565V-2.9h-10.28V-45.541h16.782q7.586,0,11.862,3.365t4.276,9.509a13.846,13.846,0,0,1-1.8,7.373,12.785,12.785,0,0,1-5.638,4.74l8.9,17.219v.44H189.526Zm-5.565-7.908h6.5a5.836,5.836,0,0,0,4.408-1.542,5.959,5.959,0,0,0,1.479-4.3,6.029,6.029,0,0,0-1.494-4.331,5.782,5.782,0,0,0-4.393-1.571h-6.5ZM239-23.34A25.147,25.147,0,0,1,236.683-12.3a17.1,17.1,0,0,1-6.575,7.4A18.309,18.309,0,0,1,220.4-2.311a18.568,18.568,0,0,1-9.665-2.5,17.072,17.072,0,0,1-6.575-7.161,24.423,24.423,0,0,1-2.475-10.69v-2.4a25.259,25.259,0,0,1,2.3-11.057,17.059,17.059,0,0,1,6.59-7.4,18.437,18.437,0,0,1,9.768-2.607,18.257,18.257,0,0,1,9.665,2.577,17.366,17.366,0,0,1,6.6,7.337A24.533,24.533,0,0,1,239-25.3Zm-10.456-1.787q0-6.356-2.123-9.651a6.811,6.811,0,0,0-6.077-3.295q-7.732,0-8.172,11.6l-.029,3.134q0,6.268,2.079,9.636a6.8,6.8,0,0,0,6.18,3.368,6.719,6.719,0,0,0,6-3.31q2.109-3.31,2.138-9.519Z" transform="translate(-2.156 46.156)" fill="#5b5b5b"/>
      <path id="Caminho_11" data-name="Caminho 11" d="M-77-45.5l9.519,29.67L-58-45.5h13.531V-2.856h-10.31v-9.958l1-20.385L-64.088-2.856h-6.8L-81.222-33.228l1,20.414v9.958h-10.28V-45.5ZM-5.487-20.956H-21.654v10.192h19.1v7.908H-31.935V-45.5H-2.5v7.937H-21.654v8.992H-5.487Zm39.563,0H17.909v10.192h19.1v7.908H7.629V-45.5H37.064v7.937H17.909v8.992H34.077ZM81.255-37.563h-12.8V-2.856H58.175V-37.563H45.611V-45.5H81.255Z" transform="translate(331.694 46.115)" fill="#e86868"/>
    </g>
  </g>
</svg>
