<svg xmlns="http://www.w3.org/2000/svg" width="212.432" height="217.635" viewBox="0 0 212.432 217.635">
  <g id="logo" transform="translate(-296.851 -487.585)">
    <path id="Caminho_15" data-name="Caminho 15" d="M160.788,810.255a31.758,31.758,0,0,1,0-44.913l22.457-22.457L205.7,765.342a31.758,31.758,0,1,1-44.913,44.913ZM89.646,765.668a43.73,43.73,0,0,1,0-61.843,44.185,44.185,0,0,1,62.487,0l30.921,30.921-30.921,30.921a44.185,44.185,0,0,1-62.487,0Zm124.329,0-30.921-30.921,30.921-30.921a44.185,44.185,0,0,1,62.487,0,43.958,43.958,0,0,1-62.487,61.842Zm-56.962-65.636a37.691,37.691,0,0,1,0-53.3,37.3,37.3,0,0,1,52.753,0,37.691,37.691,0,0,1,0,53.3l-26.377,26.377Z" transform="translate(220.012 -148.219)" fill="#e86868"/>
    <g id="Grupo_28" data-name="Grupo 28" transform="translate(314.526 686.411)">
      <path id="Caminho_12" data-name="Caminho 12" d="M17.472-33.793a6.681,6.681,0,0,1-1.03,3.374A6.218,6.218,0,0,1,13.8-28.152a9,9,0,0,1-3.889.8A7.184,7.184,0,0,1,4.229-29.7a9.7,9.7,0,0,1-2.073-6.634v-.9a11.073,11.073,0,0,1,.936-4.705,7.092,7.092,0,0,1,2.7-3.116,7.519,7.519,0,0,1,4.071-1.1A7.885,7.885,0,0,1,15.211-44.4a6.925,6.925,0,0,1,2.3,4.831h-4.4a3.276,3.276,0,0,0-.842-2.4A3.462,3.462,0,0,0,9.858-42.7,2.634,2.634,0,0,0,7.446-41.47a7.914,7.914,0,0,0-.8,3.933v1.294a8.757,8.757,0,0,0,.735,4.184A2.69,2.69,0,0,0,9.908-30.8a3.387,3.387,0,0,0,2.324-.716,3.04,3.04,0,0,0,.854-2.274ZM34.02-36.369a10.788,10.788,0,0,1-.993,4.737,7.336,7.336,0,0,1-2.821,3.172,7.854,7.854,0,0,1-4.165,1.112A7.965,7.965,0,0,1,21.9-28.422a7.324,7.324,0,0,1-2.821-3.072,10.477,10.477,0,0,1-1.062-4.586v-1.03A10.835,10.835,0,0,1,19-41.853a7.318,7.318,0,0,1,2.827-3.173,7.909,7.909,0,0,1,4.19-1.118,7.832,7.832,0,0,1,4.146,1.106A7.45,7.45,0,0,1,33-41.891a10.524,10.524,0,0,1,1.024,4.68Zm-4.485-.766a7.693,7.693,0,0,0-.911-4.14,2.922,2.922,0,0,0-2.607-1.413q-3.317,0-3.505,4.975L22.5-36.369a7.912,7.912,0,0,0,.892,4.134,2.917,2.917,0,0,0,2.651,1.445,2.882,2.882,0,0,0,2.576-1.42,7.7,7.7,0,0,0,.917-4.083Zm11.522-8.757,4.083,12.728,4.071-12.728h5.8V-27.6H50.594v-4.272l.427-8.745L46.6-27.6H43.683L39.248-40.628l.427,8.757V-27.6h-4.41V-45.892ZM61.2-33.806V-27.6h-4.41V-45.892h7.3a8.5,8.5,0,0,1,3.713.773,5.824,5.824,0,0,1,2.5,2.2,6,6,0,0,1,.886,3.235,5.293,5.293,0,0,1-1.916,4.278,7.95,7.95,0,0,1-5.258,1.6Zm0-3.4h2.89a2.725,2.725,0,0,0,1.954-.641,2.381,2.381,0,0,0,.672-1.809,2.943,2.943,0,0,0-.691-2.048,2.447,2.447,0,0,0-1.885-.779H61.2Zm18.106,3.141H76.918V-27.6h-4.41V-45.892h7.2A8.036,8.036,0,0,1,84.8-44.449,4.891,4.891,0,0,1,86.63-40.37a5.939,5.939,0,0,1-.773,3.163,5.484,5.484,0,0,1-2.419,2.033l3.82,7.386v.189H82.534Zm-2.387-3.392h2.789a2.5,2.5,0,0,0,1.891-.661,2.556,2.556,0,0,0,.634-1.845,2.586,2.586,0,0,0-.641-1.858,2.48,2.48,0,0,0-1.885-.674H76.918Zm26.838,1.093a10.788,10.788,0,0,1-.993,4.737,7.336,7.336,0,0,1-2.821,3.172,7.854,7.854,0,0,1-4.165,1.112,7.965,7.965,0,0,1-4.146-1.074,7.324,7.324,0,0,1-2.821-3.072A10.477,10.477,0,0,1,87.75-36.08v-1.03a10.835,10.835,0,0,1,.986-4.743,7.318,7.318,0,0,1,2.827-3.173,7.909,7.909,0,0,1,4.19-1.118A7.832,7.832,0,0,1,99.9-45.038a7.45,7.45,0,0,1,2.833,3.147,10.524,10.524,0,0,1,1.024,4.68Zm-4.485-.766a7.693,7.693,0,0,0-.911-4.14,2.922,2.922,0,0,0-2.607-1.413q-3.317,0-3.505,4.975l-.013,1.344a7.912,7.912,0,0,0,.892,4.134,2.917,2.917,0,0,0,2.651,1.445,2.882,2.882,0,0,0,2.576-1.42,7.7,7.7,0,0,0,.917-4.083Z" transform="translate(-2.156 46.156)" fill="#5b5b5b"/>
      <path id="Caminho_11" data-name="Caminho 11" d="M-84.714-45.5l4.083,12.728L-76.56-45.5h5.8v18.294h-4.423v-4.272l.427-8.745-4.423,13.017h-2.915l-4.435-13.029.427,8.757v4.272h-4.41V-45.5Zm30.68,10.529H-60.97V-30.6h8.192v3.392h-12.6V-45.5h12.627v3.4H-60.97v3.857h6.936Zm16.972,0H-44V-30.6h8.192v3.392h-12.6V-45.5h12.627v3.4H-44v3.857h6.936ZM-16.824-42.1h-5.491v14.889h-4.41V-42.1h-5.39v-3.4h15.291Z" transform="translate(193.971 45.764)" fill="#e86868"/>
    </g>
  </g>
</svg>
